<svg width="800" height="800" viewBox="0 0 800 800" fill="none" xmlns="http://www.w3.org/2000/svg">
  <rect width="800" height="800" fill="#FFF0F5"/>
  <!-- Crochet Bag -->
  <path d="M250 300C250 277.909 267.909 260 290 260H510C532.091 260 550 277.909 550 300V500C550 522.091 532.091 540 510 540H290C267.909 540 250 522.091 250 500V300Z" fill="#FFCCE0"/>
  <!-- Bag Handle -->
  <path d="M290 260C290 210 350 180 400 180C450 180 510 210 510 260" stroke="#FFCCE0" stroke-width="20" stroke-linecap="round"/>
  <!-- Crochet Pattern -->
  <path d="M270 320H530" stroke="#FF9EC4" stroke-width="5" stroke-linecap="round" stroke-dasharray="10 10"/>
  <path d="M270 360H530" stroke="#FF9EC4" stroke-width="5" stroke-linecap="round" stroke-dasharray="10 10"/>
  <path d="M270 400H530" stroke="#FF9EC4" stroke-width="5" stroke-linecap="round" stroke-dasharray="10 10"/>
  <path d="M270 440H530" stroke="#FF9EC4" stroke-width="5" stroke-linecap="round" stroke-dasharray="10 10"/>
  <path d="M270 480H530" stroke="#FF9EC4" stroke-width="5" stroke-linecap="round" stroke-dasharray="10 10"/>
  <path d="M270 520H530" stroke="#FF9EC4" stroke-width="5" stroke-linecap="round" stroke-dasharray="10 10"/>
  <!-- Decorative elements -->
  <circle cx="200" cy="200" r="30" fill="#FF9EC4" opacity="0.7"/>
  <circle cx="600" cy="200" r="40" fill="#FF9EC4" opacity="0.7"/>
  <circle cx="200" cy="600" r="40" fill="#FF9EC4" opacity="0.7"/>
  <circle cx="600" cy="600" r="30" fill="#FF9EC4" opacity="0.7"/>
  <!-- Text -->
  <text x="400" y="600" font-family="Arial" font-size="48" text-anchor="middle" fill="#E57F9E">Bolsa de Crochê</text>
</svg>