<svg width="800" height="800" viewBox="0 0 800 800" fill="none" xmlns="http://www.w3.org/2000/svg">
  <rect width="800" height="800" fill="#F9D5E5"/>
  <path d="M400 250C344.772 250 300 294.772 300 350C300 405.228 344.772 450 400 450C455.228 450 500 405.228 500 350C500 294.772 455.228 250 400 250ZM400 420C361.406 420 330 388.594 330 350C330 311.406 361.406 280 400 280C438.594 280 470 311.406 470 350C470 388.594 438.594 420 400 420Z" fill="#E57F9E"/>
  <path d="M450 550H350C336.193 550 325 561.193 325 575V575C325 588.807 336.193 600 350 600H450C463.807 600 475 588.807 475 575V575C475 561.193 463.807 550 450 550Z" fill="#E57F9E"/>
  <path d="M400 200C389.507 200 381 208.507 381 219C381 229.493 389.507 238 400 238C410.493 238 419 229.493 419 219C419 208.507 410.493 200 400 200Z" fill="#E57F9E"/>
  <text x="400" y="500" font-family="Arial" font-size="48" text-anchor="middle" fill="#E57F9E">Maarte Ateliê</text>
</svg>