<?xml version="1.0" encoding="UTF-8"?>
<svg version="1.1" xmlns="http://www.w3.org/2000/svg" width="512" height="512">
<path d="M0 0 C0.62055267 0.30004944 1.24110535 0.60009888 1.88046265 0.90924072 C8.53662524 4.14249914 15.06709433 7.52122612 21.46801758 11.23706055 C29.5150365 15.84915893 34.89506749 16.71019348 44.0625 15 C47.3482028 14.58299614 50.64084219 14.25501653 53.9375 13.9375 C54.83283447 13.85048828 55.72816895 13.76347656 56.65063477 13.67382812 C114.08413801 8.44476987 170.72187111 26.33707114 215.0625 63 C219.03948111 66.41529027 222.87022889 69.97299315 226.63525391 73.61962891 C227.97836018 74.91862358 229.33827542 76.20017391 230.69921875 77.48046875 C237.03512421 83.57765878 242.45170342 90.20708535 247.72314453 97.22070312 C248.58459227 98.36511273 249.45228106 99.50486501 250.32763672 100.63867188 C275.24355218 132.93744686 291.03734389 176.09476027 291.265625 217.00390625 C291.27195953 217.83663055 291.27829407 218.66935486 291.28482056 219.52731323 C291.30060906 222.20572243 291.30669401 224.88405232 291.3125 227.5625 C291.31815979 228.47806671 291.32381958 229.39363342 291.32965088 230.33694458 C291.38689075 241.2856862 290.93698437 251.64173593 288.9375 262.4375 C287.0864146 273.53260938 290.36021905 279.38560598 296.45654297 288.44677734 C299.60292542 293.44903756 302.08102674 298.79853258 304.625 304.125 C305.17752441 305.27814697 305.73004883 306.43129395 306.29931641 307.61938477 C315.00441765 326.07425092 321.71037212 345.32074741 327.0625 365 C327.2884082 365.79212891 327.51431641 366.58425781 327.74707031 367.40039062 C331.28950518 380.23151415 331.47463474 393.15467013 331.5625 406.375 C331.57312469 407.23253876 331.58374939 408.09007751 331.59469604 408.97360229 C331.78716746 429.26659378 327.63710839 447.87960199 313.18359375 463.00878906 C300.44982985 475.80360525 283.48696766 482.99502834 265.39453125 483.2734375 C264.27982956 483.29263748 264.27982956 483.29263748 263.14260864 483.31222534 C222.71294565 483.87094319 186.12935853 472.98603108 150.0625 455 C148.02759495 454.00209176 145.9924341 453.004705 143.95703125 452.0078125 C140.20224063 450.15643749 136.45214122 448.2966186 132.71484375 446.41015625 C131.91240234 446.00643799 131.10996094 445.60271973 130.28320312 445.18676758 C128.25506469 444.10290864 126.38401019 442.9027329 124.46484375 441.640625 C120.08812086 439.53015013 117.35593973 439.87136878 112.6875 440.6875 C111.26307754 440.90011984 109.83859807 441.11235808 108.4140625 441.32421875 C107.32714111 441.49377075 107.32714111 441.49377075 106.21826172 441.66674805 C51.51216615 450.12357936 -6.12359127 434.86723011 -50.53125 402.3984375 C-56.51858436 397.92641616 -62.18454158 393.14101477 -67.67578125 388.07421875 C-69.72074667 386.19878414 -71.81369475 384.40967467 -73.9375 382.625 C-105.00721002 355.33822872 -124.48707948 314.58287246 -133.9375 275 C-134.19055908 273.94981689 -134.19055908 273.94981689 -134.44873047 272.87841797 C-139.16027103 252.6781316 -139.77763729 231.28194697 -138.0625 210.6875 C-137.98386719 209.66205078 -137.90523437 208.63660156 -137.82421875 207.58007812 C-137.74042969 206.54689453 -137.65664062 205.51371094 -137.5703125 204.44921875 C-137.48579834 203.40121094 -137.40128418 202.35320312 -137.31420898 201.2734375 C-136.9375 198 -136.9375 198 -136.20336914 194.5234375 C-134.23546529 184.87864835 -135.9957419 179.85989378 -141.125 171.625 C-142.44197789 169.34708192 -143.75307147 167.06575282 -145.05859375 164.78125 C-145.71714355 163.64558594 -146.37569336 162.50992188 -147.05419922 161.33984375 C-169.23190646 122.00991957 -188.44981238 66.33813593 -175.9375 21 C-170.96084478 4.00130706 -160.66460704 -9.14858116 -145.46875 -18.140625 C-100.83356738 -41.64322116 -41.8689999 -20.25137239 0 0 Z M-119.9375 31 C-126.87411672 38.52198522 -129.63490971 48.59764981 -129.27734375 58.6953125 C-124.49451684 105.20418106 -95.75307944 148.10861994 -68.9375 185 C-68.38594238 185.7640918 -67.83438477 186.52818359 -67.26611328 187.31542969 C-59.61455362 197.90458391 -51.69794922 208.20996415 -43.36572266 218.27197266 C-41.33287731 220.73154178 -39.32452377 223.21088815 -37.3125 225.6875 C-30.05300487 234.54248856 -22.67376136 243.27470972 -14.97265625 251.75 C-13.16372457 253.74989375 -11.38858199 255.77269432 -9.625 257.8125 C-2.11627555 266.41624677 5.69428744 274.7043844 13.8203125 282.7265625 C16.48321766 285.42658132 18.95125359 288.2581175 21.421875 291.1328125 C25.23656036 295.47428774 29.36091086 299.43319648 33.75 303.1875 C37.36392984 306.2961814 40.71509012 309.61138642 44.0625 313 C47.92546946 316.90549207 51.82988444 320.67130659 56.015625 324.234375 C58.51964849 326.3943342 60.94247698 328.63487993 63.375 330.875 C68.26137998 335.32688655 73.29785543 339.5330313 78.44287109 343.68066406 C80.25234808 345.15464863 82.04283605 346.64990254 83.83203125 348.1484375 C113.88901791 373.27681171 146.55558799 396.22716236 182.0625 413 C182.76697266 413.33628418 183.47144531 413.67256836 184.19726562 414.01904297 C204.19016714 423.49475252 224.59957875 430.14959821 246.875 430.375 C247.81762695 430.38901855 248.76025391 430.40303711 249.73144531 430.41748047 C256.29720913 430.3726355 263.04908046 429.8230283 269.0625 427 C271.55219523 423.84974502 272.85330739 420.81651419 274.0625 417 C274.31708984 416.2147998 274.57167969 415.42959961 274.83398438 414.62060547 C276.9197173 407.71564046 277.60746999 401.32133742 277.5625 394.125 C277.55677979 393.0407373 277.55105957 391.95647461 277.54516602 390.83935547 C277.19246152 374.59594762 273.17787538 349.6984743 262.0625 337 C261.45664062 337.93199219 260.85078125 338.86398437 260.2265625 339.82421875 C252.5749691 351.50442775 244.5419507 362.58266188 235.0234375 372.8359375 C233.34851937 374.68435313 231.86160751 376.56457526 230.375 378.5625 C228.0625 381 228.0625 381 225.5703125 381.9140625 C220.30874816 382.04296497 216.35132509 379.98030566 211.625 377.8125 C210.61219971 377.35762207 209.59939941 376.90274414 208.5559082 376.43408203 C174.58930463 360.96487187 143.60435253 340.68670777 114.0625 318 C113.46244141 317.54028809 112.86238281 317.08057617 112.24414062 316.60693359 C105.02214029 311.05654675 97.99945366 305.31647774 91.11645508 299.35083008 C87.50759501 296.22390012 83.8459551 293.1815472 80.125 290.1875 C76.47393071 287.22500957 73.09363995 284.16461764 69.83872986 280.77528381 C68.09393116 279.03141442 66.28567296 277.43327905 64.40844727 275.83374023 C59.81532433 271.84019161 55.51156609 267.59320421 51.21484375 263.28515625 C50.39931534 262.47058456 49.58378693 261.65601288 48.74354553 260.8167572 C47.03051992 259.10440807 45.31874035 257.39081158 43.6081543 255.67602539 C41.00746448 253.06997985 38.40148044 250.46931478 35.79492188 247.86914062 C34.12207514 246.19563301 32.44953866 244.52181518 30.77734375 242.84765625 C30.00736557 242.0797023 29.23738739 241.31174835 28.44407654 240.52052307 C23.78232904 235.83876766 19.36725407 231.01021061 15.0625 226 C13.60804483 224.39231627 12.15029105 222.78760285 10.6875 221.1875 C5.95634655 215.93862774 1.50373215 210.49437924 -2.9375 205 C-3.94832767 203.76879913 -4.96010049 202.53837382 -5.97265625 201.30859375 C-35.90326193 164.87879665 -61.45011246 125.44536072 -79.9375 82 C-67.02824658 66.57186786 -51.15239251 54.3289355 -33.9375 44 C-45.09494781 30.81753498 -75.9033666 24.74395333 -92.0625 23.1875 C-102.64536987 22.6477971 -111.55098771 24.14365838 -119.9375 31 Z " fill="#FF0000" transform="translate(179.9375,28)"/>
</svg>
